<?xml version="1.0" encoding="UTF-8"?>
<!DOCTYPE svg PUBLIC "-//W3C//DTD SVG 1.1//EN" "http://www.w3.org/Graphics/SVG/1.1/DTD/svg11.dtd">
<svg xmlns="http://www.w3.org/2000/svg" version="1.1" width="423px" height="430px" style="shape-rendering:geometricPrecision; text-rendering:geometricPrecision; image-rendering:optimizeQuality; fill-rule:evenodd; clip-rule:evenodd" xmlns:xlink="http://www.w3.org/1999/xlink">
<g><path style="opacity:0.992" fill="#242021" d="M 422.5,32.5 C 422.5,35.5 422.5,38.5 422.5,41.5C 409.346,148.735 396.012,256.068 382.5,363.5C 380.121,365.042 377.454,365.709 374.5,365.5C 358.806,363.913 343.139,362.08 327.5,360C 323.5,359.333 319.5,359.333 315.5,360C 252.019,383.101 188.685,406.268 125.5,429.5C 124.5,429.5 123.5,429.5 122.5,429.5C 119.231,428.775 116.398,427.108 114,424.5C 75.1659,320.328 37.3325,215.828 0.5,111C 0.427173,106.142 2.42717,102.475 6.5,100C 59.5766,80.8635 112.577,61.5301 165.5,42C 167.941,29.9881 169.774,17.8215 171,5.5C 171.273,3.67109 172.107,2.17109 173.5,1C 177.167,0.333333 180.833,0.333333 184.5,1C 261.833,10.3333 339.167,19.6667 416.5,29C 419.025,29.4238 421.025,30.5905 422.5,32.5 Z"/></g>
<g><path style="opacity:1" fill="#050708" d="M 177.5,7.5 C 256.832,16.8331 336.165,26.1665 415.5,35.5C 403.155,143.544 390.488,251.544 377.5,359.5C 297.904,350.279 218.404,340.613 139,330.5C 150.994,222.722 163.827,115.055 177.5,7.5 Z"/></g>
<g><path style="opacity:1" fill="#fefefe" d="M 160.5,61.5 C 161.833,61.5 163.167,61.5 164.5,61.5C 154.031,148.493 143.531,235.493 133,322.5C 132.333,326.167 132.333,329.833 133,333.5C 134.236,335.538 136.069,336.705 138.5,337C 185.873,342.338 233.207,348.005 280.5,354C 229.976,372.756 179.31,391.256 128.5,409.5C 127.833,409.167 127.167,408.833 126.5,408.5C 90.9384,310.65 55.2718,212.817 19.5,115C 20.444,113.523 21.7774,112.523 23.5,112C 69.4576,95.629 115.124,78.7956 160.5,61.5 Z"/></g>
</svg>
